<?xml version="1.0" encoding="utf-8"?>
<!-- Generator: Adobe Illustrator 26.0.3, SVG Export Plug-In . SVG Version: 6.00 Build 0)  -->
<svg version="1.1" id="Layer_1" xmlns="http://www.w3.org/2000/svg" xmlns:xlink="http://www.w3.org/1999/xlink" x="0px" y="0px"
	 viewBox="0 0 375.6 527.3" style="enable-background:new 0 0 375.6 527.3;" xml:space="preserve">
<style type="text/css">
	.st0{fill:#F27405;}
	.st1{fill:#FFFFFF;}
	.st2{fill:#03A63C;}
</style>
<g>
	<path class="st0" d="M349.8,252.4L349.8,252.4c-3.5-5.5-7.6-10.6-12.2-15.5c1.3-1.2,2.6-2.4,3.9-3.8c8.9-9.6,13.6-21.5,13.6-34.5
		l0-1c0-0.3,0-0.6-0.1-0.9c1.8-5.3,2.8-10.8,2.8-16.6l0-1c-0.5-18.5-6.6-37.2-18.1-55.6c-10.7-17-25.9-32.1-45.3-44.9
		c-10.4-6.9-22.1-12.6-34.9-17.2v-1.3c0-14.9-5.9-28.6-16.7-38.7c-10.1-9.4-22.6-14.4-36.3-14.4H168c-14.4,0-27.7,5.5-37.6,15.4
		c-9.8,9.8-15.2,22.9-15.4,36.9c-23.9,7.7-44.3,19.7-60.7,35.7c-25.9,25.3-39.1,56.4-39.1,92.5c0,11.1,1.2,21.6,3.4,31.5
		c1.8,21.5,8.2,40.6,19.1,56.7c1.3,1.9,2.7,3.8,4.1,5.7c-7.3,2.5-14.1,6.7-19.7,12.3c-9.8,9.8-15.1,22.6-15.1,36.3l0,1.5
		c0.4,8.2,1.5,16.2,3.5,24c2,18.2,8.1,35.5,18.3,51.8c11.5,18.4,28.3,33.8,49.8,45.9c11.2,6.3,23.8,11.5,37.7,15.4
		c0.5,13.4,5.8,25.8,15.1,35.2c9.8,9.8,22.9,15.1,37,15.1h37.7c13.5,0,25.8-4.9,35.8-14.2c10.2-9.6,16-22.5,16.3-36.6
		c12.4-3.6,24-8.3,34.6-13.9c22.2-11.7,39.8-27.5,52.6-46.9c10.5-16,16.8-34,19.1-53.5c2.5-10.3,3.9-21.1,3.9-32.4
		C368.4,295,362.2,271.6,349.8,252.4z M336.4,384.9c-11.6,17.8-27.9,32.2-48.3,43c-12.8,6.8-27,12-42.5,15.7v9.3
		c0,11-4.3,21.1-12.2,28.5c-7.5,7-16.8,10.7-27,10.7H168c-10.7,0-20.5-4-27.9-11.3c-7.3-7.3-11.3-17.2-11.3-27.9v-8.8
		c-17.1-4-32.2-9.7-45.3-17c-19.8-11.2-35.2-25.3-45.7-42c-10.5-16.8-16.3-34.9-17.1-53.9l0-1.2c0-9.8,3.9-19.1,11.1-26.2
		c7.1-7.2,16.6-11.1,26.7-11.1H98c-0.9-0.4-1.7-0.8-2.6-1.2c-20.9-10-37.3-23.6-48.7-40.4c-11.7-17.4-17.7-38.6-17.7-63.3
		c0-32.3,11.7-60.1,34.9-82.6c17-16.6,38.7-28.3,64.9-35.2v-9.7c0-10.7,4-20.6,11.3-27.9c7.3-7.3,17.2-11.3,27.9-11.3h38.3
		c10.1,0,19.4,3.7,26.9,10.6c7.9,7.4,12.3,17.5,12.3,28.5v11.3c15.4,4.6,29.2,10.8,41.2,18.7c17.7,11.7,31.6,25.4,41.2,40.7
		c10.2,16.2,15.6,32.5,16,48.6l0,0.8c0,9.5-3.5,18.3-10.1,25.5c-7,7.6-16.7,11.9-27.2,11.9h-21.4c1.1,0.5,2.2,1,3.3,1.5
		c22.1,10.1,38.8,23.7,49.7,40.7c10.9,17,16.4,37.8,16.4,61.8C354.6,345.3,348.5,366.5,336.4,384.9z"/>
</g>
<path class="st1" d="M336.4,384.9c-11.6,17.8-27.9,32.2-48.3,43c-12.8,6.8-27,12-42.5,15.7v9.3c0,11-4.3,21.1-12.2,28.5
	c-7.5,7-16.8,10.7-27,10.7H168c-10.7,0-20.5-4-27.9-11.3c-7.3-7.3-11.3-17.2-11.3-27.9v-8.8c-17.1-4-32.2-9.7-45.3-17
	c-19.8-11.2-35.2-25.3-45.7-42c-10.5-16.8-16.3-34.9-17.1-53.9l0-1.2c0-9.8,3.9-19.1,11.1-26.2c7.1-7.2,16.6-11.1,26.7-11.1H98
	c-0.9-0.4-1.7-0.8-2.6-1.2c-20.9-10-37.3-23.6-48.7-40.4c-11.7-17.4-17.7-38.6-17.7-63.3c0-32.3,11.7-60.1,34.9-82.6
	c17-16.6,38.7-28.3,64.9-35.2v-9.7c0-10.7,4-20.6,11.3-27.9c7.3-7.3,17.2-11.3,27.9-11.3h38.3c10.1,0,19.4,3.7,26.9,10.6
	c7.9,7.4,12.3,17.5,12.3,28.5v11.3c15.4,4.6,29.2,10.8,41.2,18.7c17.7,11.7,31.6,25.4,41.2,40.7c10.2,16.2,15.6,32.5,16,48.6l0,0.8
	c0,9.5-3.5,18.3-10.1,25.5c-7,7.6-16.7,11.9-27.2,11.9h-21.4c1.1,0.5,2.2,1,3.3,1.5c22.1,10.1,38.8,23.7,49.7,40.7
	c10.9,17,16.4,37.8,16.4,61.8C354.6,345.3,348.5,366.5,336.4,384.9z"/>
<g>
	<path class="st2" d="M168.2,464.6c-3.4,0-6.2-1.1-8.3-3.2c-2.2-2.2-3.2-4.9-3.2-8.3v-31.9c-23.7-3.1-43.5-9.1-59.4-18
		c-15.9-8.9-27.8-19.8-35.8-32.6c-8-12.8-12.3-26.3-12.9-40.4c0-2.5,1-4.7,3-6.7c2-2,4.4-3,7.2-3h58.2c4.3,0,7.5,0.8,9.7,2.3
		c2.1,1.5,4.3,3.5,6.5,6c2.5,4.6,5.9,9.1,10.4,13.4c4.5,4.3,10.3,7.8,17.6,10.4c7.2,2.6,16.2,3.9,27,3.9c17.9,0,31.3-2.8,40.4-8.3
		c9.1-5.5,13.6-13.1,13.6-22.6c0-6.8-2.5-12.4-7.4-16.9c-4.9-4.5-12.9-8.5-23.8-12c-10.9-3.5-25.5-7.2-43.7-10.9
		c-23.4-4.9-43.3-11.3-59.8-19.2c-16.5-7.9-29-18.2-37.6-30.9c-8.6-12.8-12.9-28.7-12.9-47.8c0-24.6,8.8-45.6,26.6-62.8
		c17.7-17.2,42.1-28,73.2-32.3V60.4c0-3.4,1.1-6.2,3.2-8.3c2.2-2.2,4.9-3.2,8.3-3.2h38.3c3.1,0,5.8,1.1,8.1,3.2
		c2.3,2.2,3.5,4.9,3.5,8.3v33.3c21.2,3.7,39.1,10.3,53.6,19.9c14.5,9.5,25.5,20.3,33,32.3c7.5,12,11.5,23.6,11.8,34.6
		c0,2.5-0.9,4.7-2.8,6.7c-1.8,2-4.2,3-6.9,3h-61c-3.4,0-6.3-0.6-8.8-1.8c-2.5-1.2-4.6-3.2-6.5-6c-1.8-6.8-6.8-12.7-14.8-17.8
		c-8-5.1-18.3-7.6-30.9-7.6c-13.2,0-23.7,2.4-31.4,7.2c-7.7,4.8-11.5,12.1-11.5,21.9c0,6.2,2.1,11.5,6.2,16.2s11.2,8.6,21,12
		c9.9,3.4,23.2,6.9,40.2,10.6c28,5.2,50.7,11.8,67.9,19.6c17.2,7.9,29.9,18,37.9,30.5c8,12.5,12,28.1,12,46.9
		c0,18.2-4.5,34.2-13.6,48c-9.1,13.9-21.8,25.1-38.1,33.7c-16.3,8.6-35.4,14.3-57.3,17.1v32.3c0,3.4-1.2,6.2-3.5,8.3
		c-2.3,2.1-5,3.2-8.1,3.2H168.2z"/>
</g>
</svg>
